<?xml version="1.0" encoding="UTF-8"?>
<svg id="Calque_2" data-name="Calque 2" xmlns="http://www.w3.org/2000/svg" xmlns:xlink="http://www.w3.org/1999/xlink" viewBox="0 0 201.41 90.76">
  <defs>
    <style>
      .cls-1 {
        stroke-width: 0px;
      }

      .cls-1, .cls-2 {
        fill: #000;
      }

      .cls-3 {
        clip-path: url(#clippath-1);
      }

      .cls-4 {
        clip-path: url(#clippath);
      }
    </style>
    <clipPath id="clippath">
      <polygon class="cls-1" points="30.46 50.51 31.92 50.51 31.92 5.51 30.46 6.27 30.46 50.51"/>
    </clipPath>
    <clipPath id="clippath-1">
      <polygon class="cls-1" points="1.13 44.38 14.95 37.93 14.95 36.42 1.12 42.88 1.13 44.38"/>
    </clipPath>
  </defs>
  <g id="Calque_1-2" data-name="Calque 1">
    <g>
      <path class="cls-1" d="M177.81,37.12l-.06-13.61s-.06-.06-.08-.02l-4.9,9c-.22.37-.57.53-.98.5h0c-.28.02-.65-.21-.84-.58l-4.89-8.96s-.05-.01-.05.01l-.03,13.58c0,.36-.29.66-.66.66h-.38c-.34,0-.61-.27-.61-.61v-17.22c0-.17.13-.3.3-.3h1.13c.14,0,.26.08.33.2l5.67,10.71c.04.08.15.08.2,0l5.84-10.71c.07-.13.2-.21.35-.21h1.04c.16,0,.28.13.28.28v17.23c0,.34-.28.62-.62.62h-.44c-.33,0-.6-.27-.6-.6Z"/>
      <path class="cls-1" d="M201.22,24.13c-.25-1.19-1.59-4.83-6.03-4.83h-.24c-4.44,0-5.78,3.65-6.03,4.84-.23,1.11-.23,7.92,0,9.03.25,1.19,1.59,4.83,6.03,4.83h.24c4.44,0,5.92-3.66,6.03-4.83.11-1.17.18-2.87.18-4.53s.05-3.41-.18-4.52ZM199.77,28.66s-.07,2.81-.18,3.7c-.15,1.12-1.1,4.05-4.4,3.96h-.22c-3.3.09-4.25-2.85-4.4-3.97-.12-.89-.18-3.7-.18-3.7,0,0,.07-2.81.18-3.7.15-1.12,1.1-4.07,4.4-3.98h.22c3.3-.1,4.25,2.86,4.4,3.98.12.89.18,3.7.18,3.7h0Z"/>
      <path class="cls-1" d="M130.06,37.41l-1.66-4.28s-.06-.08-.11-.08h-8.49c-.05,0-.1.03-.11.08l-1.61,4.23c-.08.21-.28.36-.51.36h-.74c-.33,0-.55-.33-.43-.63l6.22-16.94c.13-.34.45-.56.82-.56h.91c.35,0,.67.22.8.54l6.67,17.07c.1.25-.08.51-.35.51h-.96c-.2,0-.38-.12-.45-.31ZM123.79,21.78l-3.48,9.44c-.03.08.03.16.11.16h7.17c.08,0,.14-.08.11-.16l-3.69-9.44c-.04-.1-.19-.1-.22,0Z"/>
      <path class="cls-1" d="M153.02,37.11l-.06-13.61s-.06-.06-.08-.02l-4.9,9c-.22.37-.57.53-.98.5h0c-.28.02-.65-.21-.84-.58l-4.89-8.96s-.05-.01-.05.01l-.03,13.58c0,.36-.29.66-.66.66h-.38c-.34,0-.61-.27-.61-.61v-17.22c0-.17.13-.3.3-.3h1.13c.14,0,.26.08.33.2l5.67,10.71c.04.08.15.08.2,0l5.84-10.71c.07-.13.2-.21.35-.21h1.04c.16,0,.28.13.28.28v17.23c0,.34-.28.62-.62.62h-.44c-.33,0-.6-.27-.6-.6Z"/>
      <rect class="cls-1" x="88.5" width="2.11" height="54.56"/>
      <polygon class="cls-1" points="16.33 50.51 17.8 50.51 17.8 12.23 16.33 13.09 16.33 50.51"/>
      <polygon class="cls-1" points="19.16 50.51 20.62 50.51 20.62 10.88 19.16 11.69 19.16 50.51"/>
      <polygon class="cls-1" points="7.23 33.11 14.94 29.51 14.94 28 7.23 31.6 7.23 33.11"/>
      <polygon class="cls-1" points="7.24 30.28 14.96 26.68 14.95 25.17 7.23 28.77 7.24 30.28"/>
      <polygon class="cls-1" points="1.11 47.14 14.93 40.69 14.94 39.25 1.12 45.7 1.11 47.14"/>
      <polygon class="cls-1" points="1.12 50.51 14.95 50.51 14.95 42.02 1.12 48.48 1.12 50.51"/>
      <polygon class="cls-1" points="21.99 50.51 23.44 50.51 23.44 9.53 21.99 10.34 21.99 50.51"/>
      <polygon class="cls-1" points="1.13 41.55 14.95 35.1 14.95 33.6 1.13 40.06 1.13 41.55"/>
      <polygon class="cls-1" points="1.13 38.73 14.95 32.27 14.95 30.83 1.13 37.29 1.13 38.73"/>
      <g>
        <polygon class="cls-2" points="30.46 50.51 31.92 50.51 31.92 5.51 30.46 6.27 30.46 50.51"/>
        <g class="cls-4">
          <rect class="cls-1" y="3.99" width="101.01" height="86.77"/>
        </g>
      </g>
      <polygon class="cls-1" points="27.63 50.51 29.1 50.51 29.1 6.81 27.63 7.66 27.63 50.51"/>
      <g>
        <polygon class="cls-2" points="1.13 44.38 14.95 37.93 14.95 36.42 1.12 42.88 1.13 44.38"/>
        <g class="cls-3">
          <rect class="cls-1" x=".11" y="3.99" width="101.01" height="86.77"/>
        </g>
      </g>
      <polygon class="cls-1" points="49.69 19.93 49.69 13.81 35.15 4.03 33.3 4.96 33.3 50.51 36.81 50.51 36.81 33.39 41.56 30.48 41.56 50.51 44.94 50.51 44.94 22.85 49.69 19.94 49.69 50.51 57.38 50.51 57.38 28.85 49.69 19.93"/>
      <polygon class="cls-1" points="24.8 50.51 26.28 50.51 26.28 8.2 24.8 8.98 24.8 50.51"/>
      <polygon class="cls-1" points="7.24 25.82 7.24 27.45 14.95 23.85 14.95 22.26 14.95 22.26 11.72 23.77 7.24 25.82"/>
    </g>
  </g>
</svg>