<?xml version="1.0" encoding="UTF-8"?>
<svg id="Calque_2" data-name="Calque 2" xmlns="http://www.w3.org/2000/svg" viewBox="0 0 92.43 30.08">
  <defs>
    <style>
      .cls-1 {
        fill: #000;
      }

      .cls-1, .cls-2 {
        stroke-width: 0px;
      }

      .cls-2 {
        fill: none;
      }
    </style>
  </defs>
  <g id="Calque_1-2" data-name="Calque 1">
    <g>
      <path class="cls-1" d="M63.81,23.17l-.06-13.61s-.06-.06-.08-.02l-4.9,9c-.22.37-.57.53-.98.5h0c-.28.02-.65-.21-.84-.58l-4.89-8.96s-.05-.01-.05.01l-.03,13.58c0,.36-.29.66-.66.66h-.38c-.34,0-.61-.27-.61-.61V5.94c0-.17.13-.3.3-.3h1.13c.14,0,.26.08.33.2l5.67,10.71c.04.08.15.08.2,0l5.84-10.71c.07-.13.2-.21.35-.21h1.04c.16,0,.28.13.28.28v17.23c0,.34-.28.62-.62.62h-.44c-.33,0-.6-.27-.6-.6Z"/>
      <path class="cls-1" d="M87.22,10.18c-.25-1.19-1.59-4.83-6.03-4.83h-.24c-4.44,0-5.78,3.65-6.03,4.84-.23,1.11-.23,7.92,0,9.03.25,1.19,1.59,4.83,6.03,4.83h.24c4.44,0,5.92-3.66,6.03-4.83.11-1.17.18-2.87.18-4.53s.05-3.41-.18-4.52ZM85.77,14.7s-.07,2.81-.18,3.7c-.15,1.12-1.1,4.05-4.4,3.96h-.22c-3.3.09-4.25-2.85-4.4-3.97-.12-.89-.18-3.7-.18-3.7,0,0,.07-2.81.18-3.7.15-1.12,1.1-4.07,4.4-3.98h.22c3.3-.1,4.25,2.86,4.4,3.98.12.89.18,3.7.18,3.7h0Z"/>
      <path class="cls-1" d="M16.05,23.46l-1.66-4.28s-.06-.08-.11-.08H5.8c-.05,0-.1.03-.11.08l-1.61,4.23c-.08.21-.28.36-.51.36h-.74c-.33,0-.55-.33-.43-.63L8.61,6.2c.13-.34.45-.56.82-.56h.91c.35,0,.67.22.8.54l6.67,17.07c.1.25-.08.51-.35.51h-.96c-.2,0-.38-.12-.45-.31ZM9.79,7.83l-3.48,9.44c-.03.08.03.16.11.16h7.17c.08,0,.14-.08.11-.16l-3.69-9.44c-.04-.1-.19-.1-.22,0Z"/>
      <path class="cls-1" d="M39.02,23.16l-.06-13.61s-.06-.06-.08-.02l-4.9,9c-.22.37-.57.53-.98.5h0c-.28.02-.65-.21-.84-.58l-4.89-8.96s-.05-.01-.05.01l-.03,13.58c0,.36-.29.66-.66.66h-.38c-.34,0-.61-.27-.61-.61V5.94c0-.17.13-.3.3-.3h1.13c.14,0,.26.08.33.2l5.67,10.71c.04.08.15.08.2,0l5.84-10.71c.07-.13.2-.21.35-.21h1.04c.16,0,.28.13.28.28v17.23c0,.34-.28.62-.62.62h-.44c-.33,0-.6-.27-.6-.6Z"/>
      <rect class="cls-2" width="92.43" height="30.08"/>
    </g>
  </g>
</svg>