<?xml version="1.0" encoding="UTF-8"?>
<svg id="Calque_2" data-name="Calque 2" xmlns="http://www.w3.org/2000/svg" xmlns:xlink="http://www.w3.org/1999/xlink" viewBox="0 0 203.4 90.76">
  <defs>
    <style>
      .cls-1 {
        clip-path: url(#clippath-11);
      }

      .cls-2 {
        clip-path: url(#clippath-16);
      }

      .cls-3 {
        fill: url(#Dégradé_sans_nom_11-8);
      }

      .cls-3, .cls-4, .cls-5, .cls-6, .cls-7, .cls-8, .cls-9, .cls-10, .cls-11, .cls-12, .cls-13, .cls-14, .cls-15, .cls-16, .cls-17, .cls-18, .cls-19, .cls-20, .cls-21, .cls-22, .cls-23, .cls-24, .cls-25, .cls-26, .cls-27 {
        stroke-width: 0px;
      }

      .cls-4 {
        fill: url(#Dégradé_sans_nom_4-15);
      }

      .cls-5 {
        fill: url(#Dégradé_sans_nom_4-17);
      }

      .cls-28 {
        clip-path: url(#clippath-2);
      }

      .cls-29 {
        clip-path: url(#clippath-13);
      }

      .cls-6 {
        fill: url(#Dégradé_sans_nom_12);
      }

      .cls-30 {
        fill: url(#Dégradé_sans_nom_4-16);
      }

      .cls-31 {
        fill: url(#Dégradé_sans_nom_11-5);
      }

      .cls-32 {
        clip-path: url(#clippath-15);
      }

      .cls-7 {
        fill: url(#Dégradé_sans_nom_11-6);
      }

      .cls-33 {
        clip-path: url(#clippath-6);
      }

      .cls-8 {
        fill: url(#Dégradé_sans_nom_4-11);
      }

      .cls-9, .cls-34 {
        fill: url(#Dégradé_sans_nom_4);
      }

      .cls-35 {
        fill: url(#Dégradé_sans_nom_4-6);
      }

      .cls-10 {
        fill: url(#Dégradé_sans_nom_11-2);
      }

      .cls-11 {
        fill: none;
      }

      .cls-12 {
        fill: url(#Dégradé_sans_nom_11-4);
      }

      .cls-36 {
        clip-path: url(#clippath-7);
      }

      .cls-37 {
        clip-path: url(#clippath-1);
      }

      .cls-38 {
        clip-path: url(#clippath-4);
      }

      .cls-39 {
        fill: url(#Dégradé_sans_nom_4-14);
      }

      .cls-40 {
        fill: url(#Dégradé_sans_nom_4-10);
      }

      .cls-41 {
        clip-path: url(#clippath-12);
      }

      .cls-13 {
        fill: url(#Dégradé_sans_nom_11-10);
      }

      .cls-14 {
        fill: url(#Dégradé_sans_nom_4-5);
      }

      .cls-15 {
        fill: url(#Dégradé_sans_nom_11);
      }

      .cls-16 {
        fill: url(#Dégradé_sans_nom_4-13);
      }

      .cls-42 {
        fill: url(#Dégradé_sans_nom_4-12);
      }

      .cls-43 {
        clip-path: url(#clippath-9);
      }

      .cls-44 {
        clip-path: url(#clippath);
      }

      .cls-17 {
        fill: url(#Dégradé_sans_nom_4-9);
      }

      .cls-18 {
        fill: url(#Nouvelle_nuance_de_dégradé_1);
      }

      .cls-45 {
        clip-path: url(#clippath-3);
      }

      .cls-19 {
        fill: url(#Dégradé_sans_nom_11-12);
      }

      .cls-20 {
        fill: url(#Dégradé_sans_nom_4-3);
      }

      .cls-21 {
        fill: url(#Dégradé_sans_nom_4-7);
      }

      .cls-46 {
        clip-path: url(#clippath-8);
      }

      .cls-47 {
        fill: url(#Dégradé_sans_nom_4-4);
      }

      .cls-22 {
        fill: url(#Dégradé_sans_nom_11-9);
      }

      .cls-48 {
        fill: url(#Dégradé_sans_nom_4-2);
      }

      .cls-49 {
        clip-path: url(#clippath-18);
      }

      .cls-50 {
        clip-path: url(#clippath-14);
      }

      .cls-51 {
        clip-path: url(#clippath-17);
      }

      .cls-52 {
        clip-path: url(#clippath-5);
      }

      .cls-53 {
        fill: url(#Dégradé_sans_nom_4-8);
      }

      .cls-54 {
        fill: url(#Dégradé_sans_nom_4-22);
      }

      .cls-55 {
        fill: url(#Dégradé_sans_nom_4-20);
      }

      .cls-56, .cls-27 {
        fill: url(#Dégradé_sans_nom_6);
      }

      .cls-23 {
        fill: url(#Dégradé_sans_nom_4-21);
      }

      .cls-57 {
        clip-path: url(#clippath-10);
      }

      .cls-24 {
        fill: url(#Dégradé_sans_nom_11-7);
      }

      .cls-58 {
        fill: url(#Dégradé_sans_nom_11-3);
      }

      .cls-25 {
        fill: url(#Dégradé_sans_nom_4-19);
      }

      .cls-59 {
        fill: url(#Dégradé_sans_nom_11-11);
      }

      .cls-60 {
        fill: url(#Dégradé_sans_nom_4-18);
      }

      .cls-26 {
        fill: url(#Dégradé_sans_nom_4-23);
      }
    </style>
    <clipPath id="clippath">
      <path class="cls-11" d="M177.81,37.12l-.06-13.61s-.06-.06-.08-.02l-4.9,9c-.22.37-.57.53-.98.5h0c-.28.02-.65-.21-.84-.58l-4.89-8.96s-.05-.01-.05.01l-.03,13.58c0,.36-.29.66-.66.66h-.38c-.34,0-.61-.27-.61-.61v-17.22c0-.17.13-.3.3-.3h1.13c.14,0,.26.08.33.2l5.67,10.71c.04.08.15.08.2,0l5.84-10.71c.07-.13.2-.21.35-.21h1.04c.16,0,.28.13.28.28v17.23c0,.34-.28.62-.62.62h-.44c-.33,0-.6-.27-.6-.6Z"/>
    </clipPath>
    <linearGradient id="Dégradé_sans_nom_12" data-name="Dégradé sans nom 12" x1="114.37" y1="28.66" x2="203.4" y2="28.66" gradientUnits="userSpaceOnUse">
      <stop offset="0" stop-color="#c89b59"/>
      <stop offset=".18" stop-color="#cea565"/>
      <stop offset=".52" stop-color="#e0c286"/>
      <stop offset=".97" stop-color="#fdf1bb"/>
      <stop offset="1" stop-color="#fff4bf"/>
    </linearGradient>
    <linearGradient id="Dégradé_sans_nom_6" data-name="Dégradé sans nom 6" x1="188.75" y1="28.65" x2="201.41" y2="28.65" gradientUnits="userSpaceOnUse">
      <stop offset="0" stop-color="#c49759"/>
      <stop offset=".18" stop-color="#cba265"/>
      <stop offset=".52" stop-color="#dec086"/>
      <stop offset=".97" stop-color="#fdf0bb"/>
      <stop offset="1" stop-color="#fff4bf"/>
    </linearGradient>
    <clipPath id="clippath-1">
      <path class="cls-27" d="M201.22,24.13c-.25-1.19-1.59-4.83-6.03-4.83h-.24c-4.44,0-5.78,3.65-6.03,4.84-.23,1.11-.23,7.92,0,9.03.25,1.19,1.59,4.83,6.03,4.83h.24c4.44,0,5.92-3.66,6.03-4.83.11-1.17.18-2.87.18-4.53s.05-3.41-.18-4.52ZM199.77,28.66s-.07,2.81-.18,3.7c-.15,1.12-1.1,4.05-4.4,3.96h-.22c-3.3.09-4.25-2.85-4.4-3.97-.12-.89-.18-3.7-.18-3.7,0,0,.07-2.81.18-3.7.15-1.12,1.1-4.07,4.4-3.98h.22c3.3-.1,4.25,2.86,4.4,3.98.12.89.18,3.7.18,3.7h0Z"/>
    </clipPath>
    <clipPath id="clippath-2">
      <path class="cls-11" d="M130.06,37.41l-1.66-4.28s-.06-.08-.11-.08h-8.49c-.05,0-.1.03-.11.08l-1.61,4.23c-.08.21-.28.36-.51.36h-.74c-.33,0-.55-.33-.43-.63l6.22-16.94c.13-.34.45-.56.82-.56h.91c.35,0,.67.22.8.54l6.67,17.07c.1.25-.08.51-.35.51h-.96c-.2,0-.38-.12-.45-.31ZM123.79,21.78l-3.48,9.44c-.03.08.03.16.11.16h7.17c.08,0,.14-.08.11-.16l-3.69-9.44c-.04-.1-.19-.1-.22,0Z"/>
    </clipPath>
    <clipPath id="clippath-3">
      <path class="cls-11" d="M153.02,37.11l-.06-13.61s-.06-.06-.08-.02l-4.9,9c-.22.37-.57.53-.98.5h0c-.28.02-.65-.21-.84-.58l-4.89-8.96s-.05-.01-.05.01l-.03,13.58c0,.36-.29.66-.66.66h-.38c-.34,0-.61-.27-.61-.61v-17.22c0-.17.13-.3.3-.3h1.13c.14,0,.26.08.33.2l5.67,10.71c.04.08.15.08.2,0l5.84-10.71c.07-.13.2-.21.35-.21h1.04c.16,0,.28.13.28.28v17.23c0,.34-.28.62-.62.62h-.44c-.33,0-.6-.27-.6-.6Z"/>
    </clipPath>
    <linearGradient id="Nouvelle_nuance_de_dégradé_1" data-name="Nouvelle nuance de dégradé 1" x1="89.56" y1="54.56" x2="89.56" y2="0" gradientUnits="userSpaceOnUse">
      <stop offset="0" stop-color="#916223"/>
      <stop offset=".28" stop-color="#d6b363"/>
      <stop offset=".53" stop-color="#fff4bf"/>
      <stop offset=".58" stop-color="#f4e6b0"/>
      <stop offset=".67" stop-color="#d9c18a"/>
      <stop offset=".79" stop-color="#ae874d"/>
      <stop offset=".8" stop-color="#a98046"/>
      <stop offset="1" stop-color="#a16a30"/>
    </linearGradient>
    <linearGradient id="Dégradé_sans_nom_4" data-name="Dégradé sans nom 4" x1="16.33" y1="31.37" x2="17.8" y2="31.37" gradientUnits="userSpaceOnUse">
      <stop offset=".13" stop-color="#9c6931"/>
      <stop offset=".3" stop-color="#b08c54"/>
      <stop offset=".53" stop-color="#e1d391"/>
      <stop offset=".58" stop-color="#d7c483"/>
      <stop offset=".68" stop-color="#bd9e61"/>
      <stop offset=".74" stop-color="#ae884d"/>
      <stop offset=".9" stop-color="#a98046"/>
      <stop offset=".96" stop-color="#99682a"/>
    </linearGradient>
    <clipPath id="clippath-4">
      <polygon class="cls-9" points="16.33 50.51 17.8 50.51 17.8 12.23 16.33 13.09 16.33 50.51"/>
    </clipPath>
    <linearGradient id="Dégradé_sans_nom_11" data-name="Dégradé sans nom 11" x1="3.67" y1=".43" x2="97.56" y2="94.32" gradientUnits="userSpaceOnUse">
      <stop offset=".11" stop-color="#6e4314"/>
      <stop offset=".26" stop-color="#9c6931"/>
      <stop offset=".41" stop-color="#b08c54"/>
      <stop offset=".55" stop-color="#e1d391"/>
      <stop offset=".6" stop-color="#d7c483"/>
      <stop offset=".69" stop-color="#bd9e61"/>
      <stop offset=".74" stop-color="#ae884d"/>
      <stop offset=".9" stop-color="#a98046"/>
      <stop offset="1" stop-color="#99682a"/>
    </linearGradient>
    <linearGradient id="Dégradé_sans_nom_4-2" data-name="Dégradé sans nom 4" x1="19.16" y1="30.69" x2="20.62" y2="30.69" xlink:href="#Dégradé_sans_nom_4"/>
    <linearGradient id="Dégradé_sans_nom_4-3" data-name="Dégradé sans nom 4" x1="19.16" y1="30.69" x2="20.62" y2="30.69" xlink:href="#Dégradé_sans_nom_4"/>
    <clipPath id="clippath-5">
      <polygon class="cls-20" points="19.16 50.51 20.62 50.51 20.62 10.88 19.16 11.69 19.16 50.51"/>
    </clipPath>
    <linearGradient id="Dégradé_sans_nom_11-2" data-name="Dégradé sans nom 11" x1="3.56" x2="97.45" y2="94.32" xlink:href="#Dégradé_sans_nom_11"/>
    <linearGradient id="Dégradé_sans_nom_11-3" data-name="Dégradé sans nom 11" x1="7.23" y1="30.56" x2="14.95" y2="30.56" xlink:href="#Dégradé_sans_nom_11"/>
    <linearGradient id="Dégradé_sans_nom_11-4" data-name="Dégradé sans nom 11" x1="7.23" y1="30.56" x2="14.95" y2="30.56" xlink:href="#Dégradé_sans_nom_11"/>
    <clipPath id="clippath-6">
      <polygon class="cls-12" points="7.23 33.11 14.95 29.51 14.94 28 7.23 31.6 7.23 33.11"/>
    </clipPath>
    <linearGradient id="Dégradé_sans_nom_4-4" data-name="Dégradé sans nom 4" x1="7.24" y1="27.73" x2="14.96" y2="27.73" xlink:href="#Dégradé_sans_nom_4"/>
    <linearGradient id="Dégradé_sans_nom_4-5" data-name="Dégradé sans nom 4" x1="7.24" y1="27.73" x2="14.96" y2="27.73" xlink:href="#Dégradé_sans_nom_4"/>
    <clipPath id="clippath-7">
      <polygon class="cls-14" points="7.25 30.28 14.96 26.68 14.95 25.17 7.24 28.77 7.25 30.28"/>
    </clipPath>
    <linearGradient id="Dégradé_sans_nom_4-6" data-name="Dégradé sans nom 4" x1="1.11" y1="43.2" x2="14.95" y2="43.2" xlink:href="#Dégradé_sans_nom_4"/>
    <linearGradient id="Dégradé_sans_nom_4-7" data-name="Dégradé sans nom 4" x1="1.11" y1="43.2" x2="14.95" y2="43.2" xlink:href="#Dégradé_sans_nom_4"/>
    <clipPath id="clippath-8">
      <polygon class="cls-21" points="1.11 47.14 14.93 40.69 14.95 39.25 1.12 45.7 1.11 47.14"/>
    </clipPath>
    <linearGradient id="Dégradé_sans_nom_4-8" data-name="Dégradé sans nom 4" x1="1.13" y1="46.27" x2="14.95" y2="46.27" xlink:href="#Dégradé_sans_nom_4"/>
    <linearGradient id="Dégradé_sans_nom_4-9" data-name="Dégradé sans nom 4" x1="1.13" y1="46.27" x2="14.95" y2="46.27" xlink:href="#Dégradé_sans_nom_4"/>
    <clipPath id="clippath-9">
      <polygon class="cls-17" points="1.13 50.51 14.95 50.51 14.95 42.02 1.13 48.48 1.13 50.51"/>
    </clipPath>
    <linearGradient id="Dégradé_sans_nom_11-5" data-name="Dégradé sans nom 11" x1="21.99" y1="30.02" x2="23.44" y2="30.02" xlink:href="#Dégradé_sans_nom_11"/>
    <linearGradient id="Dégradé_sans_nom_11-6" data-name="Dégradé sans nom 11" x1="21.99" y1="30.02" x2="23.44" y2="30.02" xlink:href="#Dégradé_sans_nom_11"/>
    <clipPath id="clippath-10">
      <polygon class="cls-7" points="21.99 50.51 23.44 50.51 23.44 9.53 21.99 10.34 21.99 50.51"/>
    </clipPath>
    <linearGradient id="Dégradé_sans_nom_11-7" data-name="Dégradé sans nom 11" x1="3.57" x2="97.46" y2="94.32" xlink:href="#Dégradé_sans_nom_11"/>
    <linearGradient id="Dégradé_sans_nom_4-10" data-name="Dégradé sans nom 4" x1="1.13" y1="37.58" x2="14.95" y2="37.58" xlink:href="#Dégradé_sans_nom_4"/>
    <linearGradient id="Dégradé_sans_nom_4-11" data-name="Dégradé sans nom 4" x1="1.13" y1="37.58" x2="14.95" y2="37.58" xlink:href="#Dégradé_sans_nom_4"/>
    <clipPath id="clippath-11">
      <polygon class="cls-8" points="1.13 41.55 14.95 35.1 14.95 33.6 1.13 40.06 1.13 41.55"/>
    </clipPath>
    <linearGradient id="Dégradé_sans_nom_4-12" data-name="Dégradé sans nom 4" x1="1.13" y1="34.78" x2="14.96" y2="34.78" xlink:href="#Dégradé_sans_nom_4"/>
    <linearGradient id="Dégradé_sans_nom_4-13" data-name="Dégradé sans nom 4" x1="1.13" y1="34.78" x2="14.96" y2="34.78" xlink:href="#Dégradé_sans_nom_4"/>
    <clipPath id="clippath-12">
      <polygon class="cls-16" points="1.13 38.73 14.96 32.27 14.96 30.83 1.13 37.29 1.13 38.73"/>
    </clipPath>
    <linearGradient id="Dégradé_sans_nom_4-14" data-name="Dégradé sans nom 4" x1="30.46" y1="28.01" x2="31.93" y2="28.01" xlink:href="#Dégradé_sans_nom_4"/>
    <linearGradient id="Dégradé_sans_nom_4-15" data-name="Dégradé sans nom 4" x1="30.46" y1="28.01" x2="31.93" y2="28.01" xlink:href="#Dégradé_sans_nom_4"/>
    <clipPath id="clippath-13">
      <polygon class="cls-4" points="30.46 50.51 31.93 50.51 31.93 5.51 30.46 6.27 30.46 50.51"/>
    </clipPath>
    <linearGradient id="Dégradé_sans_nom_11-8" data-name="Dégradé sans nom 11" x1="3.56" y1=".43" x2="97.45" y2="94.32" xlink:href="#Dégradé_sans_nom_11"/>
    <linearGradient id="Dégradé_sans_nom_4-16" data-name="Dégradé sans nom 4" x1="27.63" y1="28.66" x2="29.1" y2="28.66" xlink:href="#Dégradé_sans_nom_4"/>
    <linearGradient id="Dégradé_sans_nom_4-17" data-name="Dégradé sans nom 4" x1="27.63" y1="28.66" x2="29.1" y2="28.66" xlink:href="#Dégradé_sans_nom_4"/>
    <clipPath id="clippath-14">
      <polygon class="cls-5" points="27.63 50.51 29.1 50.51 29.1 6.81 27.63 7.66 27.63 50.51"/>
    </clipPath>
    <linearGradient id="Dégradé_sans_nom_11-9" data-name="Dégradé sans nom 11" x1="3.6" y1=".43" x2="97.49" y2="94.32" xlink:href="#Dégradé_sans_nom_11"/>
    <linearGradient id="Dégradé_sans_nom_4-18" data-name="Dégradé sans nom 4" x1="1.12" y1="40.4" x2="14.95" y2="40.4" xlink:href="#Dégradé_sans_nom_4"/>
    <linearGradient id="Dégradé_sans_nom_4-19" data-name="Dégradé sans nom 4" x1="1.12" y1="40.4" x2="14.95" y2="40.4" xlink:href="#Dégradé_sans_nom_4"/>
    <clipPath id="clippath-15">
      <polygon class="cls-25" points="1.13 44.38 14.95 37.93 14.95 36.42 1.12 42.88 1.13 44.38"/>
    </clipPath>
    <linearGradient id="Dégradé_sans_nom_4-20" data-name="Dégradé sans nom 4" x1="33.3" y1="27.27" x2="57.38" y2="27.27" xlink:href="#Dégradé_sans_nom_4"/>
    <linearGradient id="Dégradé_sans_nom_4-21" data-name="Dégradé sans nom 4" x1="33.3" y1="27.27" x2="57.38" y2="27.27" xlink:href="#Dégradé_sans_nom_4"/>
    <clipPath id="clippath-16">
      <polygon class="cls-23" points="49.69 19.93 49.69 13.81 35.15 4.03 33.3 4.96 33.3 50.51 36.81 50.51 36.81 33.39 41.56 30.48 41.56 50.51 44.94 50.51 44.94 22.85 49.69 19.94 49.69 50.51 57.38 50.51 57.38 28.85 49.69 19.93"/>
    </clipPath>
    <linearGradient id="Dégradé_sans_nom_4-22" data-name="Dégradé sans nom 4" x1="24.8" y1="29.35" x2="26.28" y2="29.35" xlink:href="#Dégradé_sans_nom_4"/>
    <linearGradient id="Dégradé_sans_nom_4-23" data-name="Dégradé sans nom 4" x1="24.8" y1="29.35" x2="26.28" y2="29.35" xlink:href="#Dégradé_sans_nom_4"/>
    <clipPath id="clippath-17">
      <polygon class="cls-26" points="24.8 50.51 26.28 50.51 26.28 8.2 24.8 8.98 24.8 50.51"/>
    </clipPath>
    <linearGradient id="Dégradé_sans_nom_11-10" data-name="Dégradé sans nom 11" x1="3.58" x2="97.47" xlink:href="#Dégradé_sans_nom_11"/>
    <linearGradient id="Dégradé_sans_nom_11-11" data-name="Dégradé sans nom 11" x1="7.24" y1="24.86" x2="14.95" y2="24.86" xlink:href="#Dégradé_sans_nom_11"/>
    <linearGradient id="Dégradé_sans_nom_11-12" data-name="Dégradé sans nom 11" x1="7.24" y1="24.86" x2="14.95" y2="24.86" xlink:href="#Dégradé_sans_nom_11"/>
    <clipPath id="clippath-18">
      <polygon class="cls-19" points="7.24 25.82 7.24 27.45 14.95 23.85 14.95 22.26 14.95 22.26 11.72 23.77 7.24 25.82"/>
    </clipPath>
  </defs>
  <g id="Calque_1-2" data-name="Calque 1">
    <g>
      <g class="cls-44">
        <rect class="cls-6" x="114.37" y="16.97" width="89.02" height="23.39"/>
      </g>
      <g>
        <path class="cls-56" d="M201.22,24.13c-.25-1.19-1.59-4.83-6.03-4.83h-.24c-4.44,0-5.78,3.65-6.03,4.84-.23,1.11-.23,7.92,0,9.03.25,1.19,1.59,4.83,6.03,4.83h.24c4.44,0,5.92-3.66,6.03-4.83.11-1.17.18-2.87.18-4.53s.05-3.41-.18-4.52ZM199.77,28.66s-.07,2.81-.18,3.7c-.15,1.12-1.1,4.05-4.4,3.96h-.22c-3.3.09-4.25-2.85-4.4-3.97-.12-.89-.18-3.7-.18-3.7,0,0,.07-2.81.18-3.7.15-1.12,1.1-4.07,4.4-3.98h.22c3.3-.1,4.25,2.86,4.4,3.98.12.89.18,3.7.18,3.7h0Z"/>
        <g class="cls-37">
          <rect class="cls-6" x="114.37" y="16.97" width="89.02" height="23.39"/>
        </g>
      </g>
      <g class="cls-28">
        <rect class="cls-6" x="114.37" y="16.97" width="89.02" height="23.39"/>
      </g>
      <g class="cls-45">
        <rect class="cls-6" x="114.37" y="16.97" width="89.02" height="23.39"/>
      </g>
      <rect class="cls-18" x="88.5" width="2.11" height="54.56"/>
      <g>
        <polygon class="cls-34" points="16.33 50.51 17.8 50.51 17.8 12.23 16.33 13.09 16.33 50.51"/>
        <g class="cls-38">
          <rect class="cls-15" x=".11" y="3.99" width="101.01" height="86.77"/>
        </g>
      </g>
      <g>
        <polygon class="cls-48" points="19.16 50.51 20.62 50.51 20.62 10.88 19.16 11.69 19.16 50.51"/>
        <g class="cls-52">
          <rect class="cls-10" y="3.99" width="101.01" height="86.77"/>
        </g>
      </g>
      <g>
        <polygon class="cls-58" points="7.23 33.11 14.95 29.51 14.94 28 7.23 31.6 7.23 33.11"/>
        <g class="cls-33">
          <rect class="cls-15" x=".11" y="3.99" width="101.01" height="86.77"/>
        </g>
      </g>
      <g>
        <polygon class="cls-47" points="7.25 30.28 14.96 26.68 14.95 25.17 7.24 28.77 7.25 30.28"/>
        <g class="cls-36">
          <rect class="cls-15" x=".11" y="3.99" width="101.01" height="86.77"/>
        </g>
      </g>
      <g>
        <polygon class="cls-35" points="1.11 47.14 14.93 40.69 14.95 39.25 1.12 45.7 1.11 47.14"/>
        <g class="cls-46">
          <rect class="cls-15" x=".11" y="3.99" width="101.01" height="86.77"/>
        </g>
      </g>
      <g>
        <polygon class="cls-53" points="1.13 50.51 14.95 50.51 14.95 42.02 1.13 48.48 1.13 50.51"/>
        <g class="cls-43">
          <rect class="cls-15" x=".11" y="3.99" width="101.01" height="86.77"/>
        </g>
      </g>
      <g>
        <polygon class="cls-31" points="21.99 50.51 23.44 50.51 23.44 9.53 21.99 10.34 21.99 50.51"/>
        <g class="cls-57">
          <rect class="cls-24" x=".01" y="3.99" width="101.01" height="86.77"/>
        </g>
      </g>
      <g>
        <polygon class="cls-40" points="1.13 41.55 14.95 35.1 14.95 33.6 1.13 40.06 1.13 41.55"/>
        <g class="cls-1">
          <rect class="cls-15" x=".11" y="3.99" width="101.01" height="86.77"/>
        </g>
      </g>
      <g>
        <polygon class="cls-42" points="1.13 38.73 14.96 32.27 14.96 30.83 1.13 37.29 1.13 38.73"/>
        <g class="cls-41">
          <rect class="cls-15" x=".11" y="3.99" width="101.01" height="86.77"/>
        </g>
      </g>
      <g>
        <polygon class="cls-39" points="30.46 50.51 31.93 50.51 31.93 5.51 30.46 6.27 30.46 50.51"/>
        <g class="cls-29">
          <rect class="cls-3" x="0" y="3.99" width="101.01" height="86.77"/>
        </g>
      </g>
      <g>
        <polygon class="cls-30" points="27.63 50.51 29.1 50.51 29.1 6.81 27.63 7.66 27.63 50.51"/>
        <g class="cls-50">
          <rect class="cls-22" x=".04" y="3.99" width="101.01" height="86.77"/>
        </g>
      </g>
      <g>
        <polygon class="cls-60" points="1.13 44.38 14.95 37.93 14.95 36.42 1.12 42.88 1.13 44.38"/>
        <g class="cls-32">
          <rect class="cls-15" x=".11" y="3.99" width="101.01" height="86.77"/>
        </g>
      </g>
      <g>
        <polygon class="cls-55" points="49.69 19.93 49.69 13.81 35.15 4.03 33.3 4.96 33.3 50.51 36.81 50.51 36.81 33.39 41.56 30.48 41.56 50.51 44.94 50.51 44.94 22.85 49.69 19.94 49.69 50.51 57.38 50.51 57.38 28.85 49.69 19.93"/>
        <g class="cls-2">
          <rect class="cls-15" x=".11" y="3.99" width="101.01" height="86.77"/>
        </g>
      </g>
      <g>
        <polygon class="cls-54" points="24.8 50.51 26.28 50.51 26.28 8.2 24.8 8.98 24.8 50.51"/>
        <g class="cls-51">
          <rect class="cls-13" x=".02" y="3.99" width="101.01" height="86.77"/>
        </g>
      </g>
      <g>
        <polygon class="cls-59" points="7.24 25.82 7.24 27.45 14.95 23.85 14.95 22.26 14.95 22.26 11.72 23.77 7.24 25.82"/>
        <g class="cls-49">
          <rect class="cls-15" x=".11" y="3.99" width="101.01" height="86.77"/>
        </g>
      </g>
    </g>
  </g>
</svg>