<?xml version="1.0" encoding="UTF-8"?>
<svg id="Calque_2" data-name="Calque 2" xmlns="http://www.w3.org/2000/svg" xmlns:xlink="http://www.w3.org/1999/xlink" viewBox="0 0 92.43 30.08">
  <defs>
    <style>
      .cls-1 {
        clip-path: url(#clippath-2);
      }

      .cls-2 {
        fill: url(#Dégradé_sans_nom_7);
      }

      .cls-2, .cls-3, .cls-4, .cls-5 {
        stroke-width: 0px;
      }

      .cls-3 {
        fill: none;
      }

      .cls-6 {
        clip-path: url(#clippath-1);
      }

      .cls-4 {
        fill: url(#Dégradé_sans_nom_7-2);
      }

      .cls-7 {
        clip-path: url(#clippath);
      }

      .cls-8 {
        clip-path: url(#clippath-3);
      }

      .cls-9, .cls-5 {
        fill: url(#Dégradé_sans_nom_6);
      }
    </style>
    <clipPath id="clippath">
      <path class="cls-3" d="M64.71,25.12l-.06-13.61s-.06-.06-.08-.02l-4.9,9c-.22.37-.57.53-.98.5h0c-.28.02-.65-.21-.84-.58l-4.89-8.96s-.05-.01-.05.01l-.03,13.58c0,.36-.29.66-.66.66h-.38c-.34,0-.61-.27-.61-.61V7.89c0-.17.13-.3.3-.3h1.13c.14,0,.26.08.33.2l5.67,10.71c.04.08.15.08.2,0l5.84-10.71c.07-.13.2-.21.35-.21h1.04c.16,0,.28.13.28.28v17.23c0,.34-.28.62-.62.62h-.44c-.33,0-.6-.27-.6-.6Z"/>
    </clipPath>
    <linearGradient id="Dégradé_sans_nom_7" data-name="Dégradé sans nom 7" x1="1.27" y1="16.66" x2="90.3" y2="16.66" gradientUnits="userSpaceOnUse">
      <stop offset="0" stop-color="#9c6931"/>
      <stop offset="1" stop-color="#e9d191"/>
    </linearGradient>
    <linearGradient id="Dégradé_sans_nom_6" data-name="Dégradé sans nom 6" x1="75.65" y1="16.65" x2="88.31" y2="16.65" gradientUnits="userSpaceOnUse">
      <stop offset="0" stop-color="#c49759"/>
      <stop offset=".18" stop-color="#cba265"/>
      <stop offset=".52" stop-color="#dec086"/>
      <stop offset=".97" stop-color="#fdf0bb"/>
      <stop offset="1" stop-color="#fff4bf"/>
    </linearGradient>
    <clipPath id="clippath-1">
      <path class="cls-5" d="M88.12,12.13c-.25-1.19-1.59-4.83-6.03-4.83h-.24c-4.44,0-5.78,3.65-6.03,4.84-.23,1.11-.23,7.92,0,9.03.25,1.19,1.59,4.83,6.03,4.83h.24c4.44,0,5.92-3.66,6.03-4.83.11-1.17.18-2.87.18-4.53s.05-3.41-.18-4.52ZM86.67,16.66s-.07,2.81-.18,3.7c-.15,1.12-1.1,4.05-4.4,3.96h-.22c-3.3.09-4.25-2.85-4.4-3.97-.12-.89-.18-3.7-.18-3.7,0,0,.07-2.81.18-3.7.15-1.12,1.1-4.07,4.4-3.98h.22c3.3-.1,4.25,2.86,4.4,3.98.12.89.18,3.7.18,3.7h0Z"/>
    </clipPath>
    <linearGradient id="Dégradé_sans_nom_7-2" data-name="Dégradé sans nom 7" y1="16.65" y2="16.65" xlink:href="#Dégradé_sans_nom_7"/>
    <clipPath id="clippath-2">
      <path class="cls-3" d="M16.96,25.41l-1.66-4.28s-.06-.08-.11-.08H6.7c-.05,0-.1.03-.11.08l-1.61,4.23c-.08.21-.28.36-.51.36h-.74c-.33,0-.55-.33-.43-.63l6.22-16.94c.13-.34.45-.56.82-.56h.91c.35,0,.67.22.8.54l6.67,17.07c.1.25-.08.51-.35.51h-.96c-.2,0-.38-.12-.45-.31ZM10.69,9.78l-3.48,9.44c-.03.08.03.16.11.16h7.17c.08,0,.14-.08.11-.16l-3.69-9.44c-.04-.1-.19-.1-.22,0Z"/>
    </clipPath>
    <clipPath id="clippath-3">
      <path class="cls-3" d="M39.92,25.11l-.06-13.61s-.06-.06-.08-.02l-4.9,9c-.22.37-.57.53-.98.5h0c-.28.02-.65-.21-.84-.58l-4.89-8.96s-.05-.01-.05.01l-.03,13.58c0,.36-.29.66-.66.66h-.38c-.34,0-.61-.27-.61-.61V7.89c0-.17.13-.3.3-.3h1.13c.14,0,.26.08.33.2l5.67,10.71c.04.08.15.08.2,0l5.84-10.71c.07-.13.2-.21.35-.21h1.04c.16,0,.28.13.28.28v17.23c0,.34-.28.62-.62.62h-.44c-.33,0-.6-.27-.6-.6Z"/>
    </clipPath>
  </defs>
  <g id="Calque_1-2" data-name="Calque 1">
    <g>
      <g class="cls-7">
        <rect class="cls-2" x="1.27" y="4.97" width="89.02" height="23.39"/>
      </g>
      <g>
        <path class="cls-9" d="M88.12,12.13c-.25-1.19-1.59-4.83-6.03-4.83h-.24c-4.44,0-5.78,3.65-6.03,4.84-.23,1.11-.23,7.92,0,9.03.25,1.19,1.59,4.83,6.03,4.83h.24c4.44,0,5.92-3.66,6.03-4.83.11-1.17.18-2.87.18-4.53s.05-3.41-.18-4.52ZM86.67,16.66s-.07,2.81-.18,3.7c-.15,1.12-1.1,4.05-4.4,3.96h-.22c-3.3.09-4.25-2.85-4.4-3.97-.12-.89-.18-3.7-.18-3.7,0,0,.07-2.81.18-3.7.15-1.12,1.1-4.07,4.4-3.98h.22c3.3-.1,4.25,2.86,4.4,3.98.12.89.18,3.7.18,3.7h0Z"/>
        <g class="cls-6">
          <rect class="cls-4" x="1.27" y="4.96" width="89.02" height="23.39"/>
        </g>
      </g>
      <g class="cls-1">
        <rect class="cls-2" x="1.27" y="4.97" width="89.02" height="23.39"/>
      </g>
      <g class="cls-8">
        <rect class="cls-2" x="1.27" y="4.97" width="89.02" height="23.39"/>
      </g>
      <rect class="cls-3" width="92.43" height="30.08"/>
    </g>
  </g>
</svg>