<?xml version="1.0" encoding="UTF-8"?>
<svg id="Calque_2" data-name="Calque 2" xmlns="http://www.w3.org/2000/svg" xmlns:xlink="http://www.w3.org/1999/xlink" viewBox="0 0 140.92 99.67">
  <defs>
    <style>
      .cls-1 {
        clip-path: url(#clippath-11);
      }

      .cls-2 {
        clip-path: url(#clippath-16);
      }

      .cls-3 {
        fill: url(#Dégradé_sans_nom_11-8);
      }

      .cls-3, .cls-4, .cls-5, .cls-6, .cls-7, .cls-8, .cls-9, .cls-10, .cls-11, .cls-12, .cls-13, .cls-14, .cls-15, .cls-16, .cls-17, .cls-18, .cls-19, .cls-20, .cls-21, .cls-22, .cls-23, .cls-24, .cls-25, .cls-26, .cls-27, .cls-28 {
        stroke-width: 0px;
      }

      .cls-4 {
        fill: url(#Dégradé_sans_nom_4-15);
      }

      .cls-5 {
        fill: url(#Dégradé_sans_nom_4-17);
      }

      .cls-29 {
        clip-path: url(#clippath-2);
      }

      .cls-30 {
        clip-path: url(#clippath-13);
      }

      .cls-6 {
        fill: url(#Dégradé_sans_nom_12);
      }

      .cls-31 {
        fill: url(#Dégradé_sans_nom_4-16);
      }

      .cls-32 {
        fill: url(#Dégradé_sans_nom_11-5);
      }

      .cls-33 {
        clip-path: url(#clippath-15);
      }

      .cls-7 {
        fill: url(#Dégradé_sans_nom_11-6);
      }

      .cls-34 {
        clip-path: url(#clippath-6);
      }

      .cls-8 {
        fill: url(#Dégradé_sans_nom_4-11);
      }

      .cls-9, .cls-35 {
        fill: url(#Dégradé_sans_nom_4);
      }

      .cls-36 {
        fill: url(#Dégradé_sans_nom_4-6);
      }

      .cls-10 {
        fill: url(#Dégradé_sans_nom_11-2);
      }

      .cls-11 {
        fill: none;
      }

      .cls-12 {
        fill: url(#Dégradé_sans_nom_11-4);
      }

      .cls-37 {
        clip-path: url(#clippath-7);
      }

      .cls-38 {
        clip-path: url(#clippath-1);
      }

      .cls-39 {
        clip-path: url(#clippath-4);
      }

      .cls-40 {
        fill: url(#Dégradé_sans_nom_4-14);
      }

      .cls-41 {
        fill: url(#Dégradé_sans_nom_4-10);
      }

      .cls-42 {
        clip-path: url(#clippath-12);
      }

      .cls-13 {
        fill: url(#Dégradé_sans_nom_11-10);
      }

      .cls-14 {
        fill: url(#Dégradé_sans_nom_4-5);
      }

      .cls-15 {
        fill: url(#Dégradé_sans_nom_11);
      }

      .cls-16 {
        fill: url(#Dégradé_sans_nom_4-13);
      }

      .cls-43 {
        fill: url(#Dégradé_sans_nom_4-12);
      }

      .cls-44 {
        clip-path: url(#clippath-9);
      }

      .cls-45 {
        clip-path: url(#clippath);
      }

      .cls-17 {
        fill: url(#Dégradé_sans_nom_4-9);
      }

      .cls-18 {
        fill: url(#Nouvelle_nuance_de_dégradé_1);
      }

      .cls-46 {
        clip-path: url(#clippath-3);
      }

      .cls-19 {
        fill: url(#Dégradé_sans_nom_11-12);
      }

      .cls-20 {
        fill: url(#Dégradé_sans_nom_4-3);
      }

      .cls-21 {
        fill: url(#Dégradé_sans_nom_4-7);
      }

      .cls-22 {
        fill: url(#Nouvelle_nuance_de_dégradé_1-2);
      }

      .cls-47 {
        clip-path: url(#clippath-8);
      }

      .cls-48 {
        fill: url(#Dégradé_sans_nom_4-4);
      }

      .cls-23 {
        fill: url(#Dégradé_sans_nom_11-9);
      }

      .cls-49 {
        fill: url(#Dégradé_sans_nom_4-2);
      }

      .cls-50 {
        clip-path: url(#clippath-18);
      }

      .cls-51 {
        clip-path: url(#clippath-14);
      }

      .cls-52 {
        clip-path: url(#clippath-17);
      }

      .cls-53 {
        clip-path: url(#clippath-5);
      }

      .cls-54 {
        fill: url(#Dégradé_sans_nom_4-8);
      }

      .cls-55 {
        fill: url(#Dégradé_sans_nom_4-22);
      }

      .cls-56 {
        fill: url(#Dégradé_sans_nom_4-20);
      }

      .cls-57, .cls-28 {
        fill: url(#Dégradé_sans_nom_6);
      }

      .cls-24 {
        fill: url(#Dégradé_sans_nom_4-21);
      }

      .cls-58 {
        clip-path: url(#clippath-10);
      }

      .cls-25 {
        fill: url(#Dégradé_sans_nom_11-7);
      }

      .cls-59 {
        fill: url(#Dégradé_sans_nom_11-3);
      }

      .cls-26 {
        fill: url(#Dégradé_sans_nom_4-19);
      }

      .cls-60 {
        fill: url(#Dégradé_sans_nom_11-11);
      }

      .cls-61 {
        fill: url(#Dégradé_sans_nom_4-18);
      }

      .cls-27 {
        fill: url(#Dégradé_sans_nom_4-23);
      }
    </style>
    <linearGradient id="Nouvelle_nuance_de_dégradé_1" data-name="Nouvelle nuance de dégradé 1" x1="137.05" y1="64.64" x2="137.05" y2=".04" gradientUnits="userSpaceOnUse">
      <stop offset="0" stop-color="#916223"/>
      <stop offset=".28" stop-color="#d6b363"/>
      <stop offset=".53" stop-color="#fff4bf"/>
      <stop offset=".58" stop-color="#f4e6b0"/>
      <stop offset=".67" stop-color="#d9c18a"/>
      <stop offset=".79" stop-color="#ae874d"/>
      <stop offset=".8" stop-color="#a98046"/>
      <stop offset="1" stop-color="#a16a30"/>
    </linearGradient>
    <linearGradient id="Nouvelle_nuance_de_dégradé_1-2" data-name="Nouvelle nuance de dégradé 1" x1="1.06" x2="1.06" xlink:href="#Nouvelle_nuance_de_dégradé_1"/>
    <linearGradient id="Dégradé_sans_nom_4" data-name="Dégradé sans nom 4" x1="56.13" y1="27.38" x2="57.6" y2="27.38" gradientUnits="userSpaceOnUse">
      <stop offset=".13" stop-color="#9c6931"/>
      <stop offset=".3" stop-color="#b08c54"/>
      <stop offset=".53" stop-color="#e1d391"/>
      <stop offset=".58" stop-color="#d7c483"/>
      <stop offset=".68" stop-color="#bd9e61"/>
      <stop offset=".74" stop-color="#ae884d"/>
      <stop offset=".9" stop-color="#a98046"/>
      <stop offset=".96" stop-color="#99682a"/>
    </linearGradient>
    <clipPath id="clippath">
      <polygon class="cls-9" points="56.13 46.52 57.6 46.52 57.6 8.24 56.13 9.1 56.13 46.52"/>
    </clipPath>
    <linearGradient id="Dégradé_sans_nom_11" data-name="Dégradé sans nom 11" x1="43.47" y1="-3.56" x2="137.36" y2="90.33" gradientUnits="userSpaceOnUse">
      <stop offset=".11" stop-color="#6e4314"/>
      <stop offset=".26" stop-color="#9c6931"/>
      <stop offset=".41" stop-color="#b08c54"/>
      <stop offset=".55" stop-color="#e1d391"/>
      <stop offset=".6" stop-color="#d7c483"/>
      <stop offset=".69" stop-color="#bd9e61"/>
      <stop offset=".74" stop-color="#ae884d"/>
      <stop offset=".9" stop-color="#a98046"/>
      <stop offset="1" stop-color="#99682a"/>
    </linearGradient>
    <linearGradient id="Dégradé_sans_nom_4-2" data-name="Dégradé sans nom 4" x1="58.96" y1="26.71" x2="60.42" y2="26.71" xlink:href="#Dégradé_sans_nom_4"/>
    <linearGradient id="Dégradé_sans_nom_4-3" data-name="Dégradé sans nom 4" x1="58.96" y1="26.71" x2="60.42" y2="26.71" xlink:href="#Dégradé_sans_nom_4"/>
    <clipPath id="clippath-1">
      <polygon class="cls-20" points="58.96 46.52 60.42 46.52 60.42 6.89 58.96 7.7 58.96 46.52"/>
    </clipPath>
    <linearGradient id="Dégradé_sans_nom_11-2" data-name="Dégradé sans nom 11" x1="43.35" y1="-3.56" x2="137.24" y2="90.33" xlink:href="#Dégradé_sans_nom_11"/>
    <linearGradient id="Dégradé_sans_nom_11-3" data-name="Dégradé sans nom 11" x1="47.02" y1="26.57" x2="54.74" y2="26.57" xlink:href="#Dégradé_sans_nom_11"/>
    <linearGradient id="Dégradé_sans_nom_11-4" data-name="Dégradé sans nom 11" x1="47.02" y1="26.57" x2="54.74" y2="26.57" xlink:href="#Dégradé_sans_nom_11"/>
    <clipPath id="clippath-2">
      <polygon class="cls-12" points="47.03 29.12 54.74 25.52 54.74 24.02 47.02 27.62 47.03 29.12"/>
    </clipPath>
    <linearGradient id="Dégradé_sans_nom_4-4" data-name="Dégradé sans nom 4" x1="47.03" y1="23.74" x2="54.75" y2="23.74" xlink:href="#Dégradé_sans_nom_4"/>
    <linearGradient id="Dégradé_sans_nom_4-5" data-name="Dégradé sans nom 4" x1="47.03" y1="23.74" x2="54.75" y2="23.74" xlink:href="#Dégradé_sans_nom_4"/>
    <clipPath id="clippath-3">
      <polygon class="cls-14" points="47.04 26.29 54.75 22.69 54.74 21.18 47.03 24.78 47.04 26.29"/>
    </clipPath>
    <linearGradient id="Dégradé_sans_nom_4-6" data-name="Dégradé sans nom 4" x1="40.9" y1="39.21" x2="54.74" y2="39.21" xlink:href="#Dégradé_sans_nom_4"/>
    <linearGradient id="Dégradé_sans_nom_4-7" data-name="Dégradé sans nom 4" x1="40.9" y1="39.21" x2="54.74" y2="39.21" xlink:href="#Dégradé_sans_nom_4"/>
    <clipPath id="clippath-4">
      <polygon class="cls-21" points="40.9 43.16 54.73 36.7 54.74 35.26 40.91 41.71 40.9 43.16"/>
    </clipPath>
    <linearGradient id="Dégradé_sans_nom_4-8" data-name="Dégradé sans nom 4" x1="40.92" y1="42.28" x2="54.75" y2="42.28" xlink:href="#Dégradé_sans_nom_4"/>
    <linearGradient id="Dégradé_sans_nom_4-9" data-name="Dégradé sans nom 4" x1="40.92" y1="42.28" x2="54.75" y2="42.28" xlink:href="#Dégradé_sans_nom_4"/>
    <clipPath id="clippath-5">
      <polygon class="cls-17" points="40.92 46.52 54.75 46.52 54.75 38.03 40.92 44.49 40.92 46.52"/>
    </clipPath>
    <linearGradient id="Dégradé_sans_nom_11-5" data-name="Dégradé sans nom 11" x1="61.78" y1="26.03" x2="63.24" y2="26.03" xlink:href="#Dégradé_sans_nom_11"/>
    <linearGradient id="Dégradé_sans_nom_11-6" data-name="Dégradé sans nom 11" x1="61.78" y1="26.03" x2="63.24" y2="26.03" xlink:href="#Dégradé_sans_nom_11"/>
    <clipPath id="clippath-6">
      <polygon class="cls-7" points="61.78 46.52 63.24 46.52 63.24 5.54 61.78 6.35 61.78 46.52"/>
    </clipPath>
    <linearGradient id="Dégradé_sans_nom_11-7" data-name="Dégradé sans nom 11" x1="43.37" y1="-3.56" x2="137.26" y2="90.33" xlink:href="#Dégradé_sans_nom_11"/>
    <linearGradient id="Dégradé_sans_nom_4-10" data-name="Dégradé sans nom 4" x1="40.92" y1="33.59" x2="54.75" y2="33.59" xlink:href="#Dégradé_sans_nom_4"/>
    <linearGradient id="Dégradé_sans_nom_4-11" data-name="Dégradé sans nom 4" x1="40.92" y1="33.59" x2="54.75" y2="33.59" xlink:href="#Dégradé_sans_nom_4"/>
    <clipPath id="clippath-7">
      <polygon class="cls-8" points="40.92 37.56 54.75 31.11 54.75 29.61 40.92 36.07 40.92 37.56"/>
    </clipPath>
    <linearGradient id="Dégradé_sans_nom_4-12" data-name="Dégradé sans nom 4" x1="40.92" y1="30.79" x2="54.75" y2="30.79" xlink:href="#Dégradé_sans_nom_4"/>
    <linearGradient id="Dégradé_sans_nom_4-13" data-name="Dégradé sans nom 4" x1="40.92" y1="30.79" x2="54.75" y2="30.79" xlink:href="#Dégradé_sans_nom_4"/>
    <clipPath id="clippath-8">
      <polygon class="cls-16" points="40.92 34.74 54.75 28.28 54.75 26.84 40.92 33.3 40.92 34.74"/>
    </clipPath>
    <linearGradient id="Dégradé_sans_nom_4-14" data-name="Dégradé sans nom 4" x1="70.25" y1="24.02" x2="71.72" y2="24.02" xlink:href="#Dégradé_sans_nom_4"/>
    <linearGradient id="Dégradé_sans_nom_4-15" data-name="Dégradé sans nom 4" x1="70.25" y1="24.02" x2="71.72" y2="24.02" xlink:href="#Dégradé_sans_nom_4"/>
    <clipPath id="clippath-9">
      <polygon class="cls-4" points="70.25 46.52 71.72 46.52 71.72 1.52 70.25 2.28 70.25 46.52"/>
    </clipPath>
    <linearGradient id="Dégradé_sans_nom_11-8" data-name="Dégradé sans nom 11" x1="43.36" y1="-3.56" x2="137.24" y2="90.33" xlink:href="#Dégradé_sans_nom_11"/>
    <linearGradient id="Dégradé_sans_nom_4-16" data-name="Dégradé sans nom 4" x1="67.42" y1="24.67" x2="68.9" y2="24.67" xlink:href="#Dégradé_sans_nom_4"/>
    <linearGradient id="Dégradé_sans_nom_4-17" data-name="Dégradé sans nom 4" x1="67.42" y1="24.67" x2="68.9" y2="24.67" xlink:href="#Dégradé_sans_nom_4"/>
    <clipPath id="clippath-10">
      <polygon class="cls-5" points="67.42 46.52 68.9 46.52 68.9 2.82 67.42 3.67 67.42 46.52"/>
    </clipPath>
    <linearGradient id="Dégradé_sans_nom_11-9" data-name="Dégradé sans nom 11" x1="43.4" x2="137.28" xlink:href="#Dégradé_sans_nom_11"/>
    <linearGradient id="Dégradé_sans_nom_4-18" data-name="Dégradé sans nom 4" x1="40.92" y1="36.41" x2="54.75" y2="36.41" xlink:href="#Dégradé_sans_nom_4"/>
    <linearGradient id="Dégradé_sans_nom_4-19" data-name="Dégradé sans nom 4" x1="40.92" y1="36.41" x2="54.75" y2="36.41" xlink:href="#Dégradé_sans_nom_4"/>
    <clipPath id="clippath-11">
      <polygon class="cls-26" points="40.92 40.39 54.75 33.94 54.75 32.43 40.92 38.89 40.92 40.39"/>
    </clipPath>
    <linearGradient id="Dégradé_sans_nom_4-20" data-name="Dégradé sans nom 4" x1="73.1" y1="23.28" x2="97.18" y2="23.28" xlink:href="#Dégradé_sans_nom_4"/>
    <linearGradient id="Dégradé_sans_nom_4-21" data-name="Dégradé sans nom 4" x1="73.1" y1="23.28" x2="97.18" y2="23.28" xlink:href="#Dégradé_sans_nom_4"/>
    <clipPath id="clippath-12">
      <polygon class="cls-24" points="89.48 15.94 89.48 9.82 74.95 .04 73.1 .97 73.1 46.52 76.6 46.52 76.6 29.4 81.35 26.49 81.35 46.52 84.73 46.52 84.73 18.86 89.48 15.95 89.48 46.52 97.18 46.52 97.18 24.86 89.48 15.94"/>
    </clipPath>
    <linearGradient id="Dégradé_sans_nom_4-22" data-name="Dégradé sans nom 4" x1="64.6" y1="25.36" x2="66.07" y2="25.36" xlink:href="#Dégradé_sans_nom_4"/>
    <linearGradient id="Dégradé_sans_nom_4-23" data-name="Dégradé sans nom 4" x1="64.6" y1="25.36" x2="66.07" y2="25.36" xlink:href="#Dégradé_sans_nom_4"/>
    <clipPath id="clippath-13">
      <polygon class="cls-27" points="64.6 46.52 66.07 46.52 66.07 4.21 64.6 4.99 64.6 46.52"/>
    </clipPath>
    <linearGradient id="Dégradé_sans_nom_11-10" data-name="Dégradé sans nom 11" x1="43.38" y1="-3.56" x2="137.27" y2="90.33" xlink:href="#Dégradé_sans_nom_11"/>
    <linearGradient id="Dégradé_sans_nom_11-11" data-name="Dégradé sans nom 11" x1="47.04" y1="20.87" x2="54.75" y2="20.87" xlink:href="#Dégradé_sans_nom_11"/>
    <linearGradient id="Dégradé_sans_nom_11-12" data-name="Dégradé sans nom 11" x1="47.04" y1="20.87" x2="54.75" y2="20.87" xlink:href="#Dégradé_sans_nom_11"/>
    <clipPath id="clippath-14">
      <polygon class="cls-19" points="47.04 21.83 47.04 23.47 54.75 19.86 54.74 18.27 54.74 18.27 51.51 19.78 47.04 21.83"/>
    </clipPath>
    <clipPath id="clippath-15">
      <path class="cls-11" d="M87.82,96.42l-.06-13.61s-.06-.06-.08-.02l-4.9,9c-.22.37-.57.53-.98.5h0c-.28.02-.65-.21-.84-.58l-4.89-8.96s-.05-.01-.05.01l-.03,13.58c0,.36-.29.66-.66.66h-.38c-.34,0-.61-.27-.61-.61v-17.22c0-.17.13-.3.3-.3h1.13c.14,0,.26.08.33.2l5.67,10.71c.04.08.15.08.2,0l5.84-10.71c.07-.13.2-.21.35-.21h1.04c.16,0,.28.13.28.28v17.23c0,.34-.28.62-.62.62h-.44c-.33,0-.6-.27-.6-.6Z"/>
    </clipPath>
    <linearGradient id="Dégradé_sans_nom_12" data-name="Dégradé sans nom 12" x1="24.39" y1="87.97" x2="113.41" y2="87.97" gradientUnits="userSpaceOnUse">
      <stop offset="0" stop-color="#c89b59"/>
      <stop offset=".18" stop-color="#cea565"/>
      <stop offset=".52" stop-color="#e0c286"/>
      <stop offset=".97" stop-color="#fdf1bb"/>
      <stop offset="1" stop-color="#fff4bf"/>
    </linearGradient>
    <linearGradient id="Dégradé_sans_nom_6" data-name="Dégradé sans nom 6" x1="98.76" y1="87.96" x2="111.42" y2="87.96" gradientUnits="userSpaceOnUse">
      <stop offset="0" stop-color="#c49759"/>
      <stop offset=".18" stop-color="#cba265"/>
      <stop offset=".52" stop-color="#dec086"/>
      <stop offset=".97" stop-color="#fdf0bb"/>
      <stop offset="1" stop-color="#fff4bf"/>
    </linearGradient>
    <clipPath id="clippath-16">
      <path class="cls-28" d="M111.24,83.43c-.25-1.19-1.59-4.83-6.03-4.83h-.24c-4.44,0-5.78,3.65-6.03,4.84-.23,1.11-.23,7.92,0,9.03.25,1.19,1.59,4.83,6.03,4.83h.24c4.44,0,5.92-3.66,6.03-4.83.11-1.17.18-2.87.18-4.53s.05-3.41-.18-4.52ZM109.79,87.96s-.07,2.81-.18,3.7c-.15,1.12-1.1,4.05-4.4,3.96h-.22c-3.3.09-4.25-2.85-4.4-3.97-.12-.89-.18-3.7-.18-3.7,0,0,.07-2.81.18-3.7.15-1.12,1.1-4.07,4.4-3.98h.22c3.3-.1,4.25,2.86,4.4,3.98.12.89.18,3.7.18,3.7h0Z"/>
    </clipPath>
    <clipPath id="clippath-17">
      <path class="cls-11" d="M40.07,96.71l-1.66-4.28s-.06-.08-.11-.08h-8.49c-.05,0-.1.03-.11.08l-1.61,4.23c-.08.21-.28.36-.51.36h-.74c-.33,0-.55-.33-.43-.63l6.22-16.94c.13-.34.45-.56.82-.56h.91c.35,0,.67.22.8.54l6.67,17.07c.1.25-.08.51-.35.51h-.96c-.2,0-.38-.12-.45-.31ZM33.8,81.09l-3.48,9.44c-.03.08.03.16.11.16h7.17c.08,0,.14-.08.11-.16l-3.69-9.44c-.04-.1-.19-.1-.22,0Z"/>
    </clipPath>
    <clipPath id="clippath-18">
      <path class="cls-11" d="M63.04,96.42l-.06-13.61s-.06-.06-.08-.02l-4.9,9c-.22.37-.57.53-.98.5h0c-.28.02-.65-.21-.84-.58l-4.89-8.96s-.05-.01-.05.01l-.03,13.58c0,.36-.29.66-.66.66h-.38c-.34,0-.61-.27-.61-.61v-17.22c0-.17.13-.3.3-.3h1.13c.14,0,.26.08.33.2l5.67,10.71c.04.08.15.08.2,0l5.84-10.71c.07-.13.2-.21.35-.21h1.04c.16,0,.28.13.28.28v17.23c0,.34-.28.62-.62.62h-.44c-.33,0-.6-.27-.6-.6Z"/>
    </clipPath>
  </defs>
  <g id="Calque_1-2" data-name="Calque 1">
    <g>
      <g>
        <g>
          <rect class="cls-18" x="135.99" y=".04" width="2.11" height="64.6"/>
          <rect class="cls-22" y=".04" width="2.11" height="64.6"/>
        </g>
        <g>
          <polygon class="cls-35" points="56.13 46.52 57.6 46.52 57.6 8.24 56.13 9.1 56.13 46.52"/>
          <g class="cls-45">
            <rect class="cls-15" x="39.91" width="101.01" height="86.77"/>
          </g>
        </g>
        <g>
          <polygon class="cls-49" points="58.96 46.52 60.42 46.52 60.42 6.89 58.96 7.7 58.96 46.52"/>
          <g class="cls-38">
            <rect class="cls-10" x="39.8" y="0" width="101.01" height="86.77"/>
          </g>
        </g>
        <g>
          <polygon class="cls-59" points="47.03 29.12 54.74 25.52 54.74 24.02 47.02 27.62 47.03 29.12"/>
          <g class="cls-29">
            <rect class="cls-15" x="39.91" width="101.01" height="86.77"/>
          </g>
        </g>
        <g>
          <polygon class="cls-48" points="47.04 26.29 54.75 22.69 54.74 21.18 47.03 24.78 47.04 26.29"/>
          <g class="cls-46">
            <rect class="cls-15" x="39.91" width="101.01" height="86.77"/>
          </g>
        </g>
        <g>
          <polygon class="cls-36" points="40.9 43.16 54.73 36.7 54.74 35.26 40.91 41.71 40.9 43.16"/>
          <g class="cls-39">
            <rect class="cls-15" x="39.91" width="101.01" height="86.77"/>
          </g>
        </g>
        <g>
          <polygon class="cls-54" points="40.92 46.52 54.75 46.52 54.75 38.03 40.92 44.49 40.92 46.52"/>
          <g class="cls-53">
            <rect class="cls-15" x="39.91" width="101.01" height="86.77"/>
          </g>
        </g>
        <g>
          <polygon class="cls-32" points="61.78 46.52 63.24 46.52 63.24 5.54 61.78 6.35 61.78 46.52"/>
          <g class="cls-34">
            <rect class="cls-25" x="39.81" width="101.01" height="86.77"/>
          </g>
        </g>
        <g>
          <polygon class="cls-41" points="40.92 37.56 54.75 31.11 54.75 29.61 40.92 36.07 40.92 37.56"/>
          <g class="cls-37">
            <rect class="cls-15" x="39.91" width="101.01" height="86.77"/>
          </g>
        </g>
        <g>
          <polygon class="cls-43" points="40.92 34.74 54.75 28.28 54.75 26.84 40.92 33.3 40.92 34.74"/>
          <g class="cls-47">
            <rect class="cls-15" x="39.91" width="101.01" height="86.77"/>
          </g>
        </g>
        <g>
          <polygon class="cls-40" points="70.25 46.52 71.72 46.52 71.72 1.52 70.25 2.28 70.25 46.52"/>
          <g class="cls-44">
            <rect class="cls-3" x="39.8" width="101.01" height="86.77"/>
          </g>
        </g>
        <g>
          <polygon class="cls-31" points="67.42 46.52 68.9 46.52 68.9 2.82 67.42 3.67 67.42 46.52"/>
          <g class="cls-58">
            <rect class="cls-23" x="39.84" width="101.01" height="86.77"/>
          </g>
        </g>
        <g>
          <polygon class="cls-61" points="40.92 40.39 54.75 33.94 54.75 32.43 40.92 38.89 40.92 40.39"/>
          <g class="cls-1">
            <rect class="cls-15" x="39.91" width="101.01" height="86.77"/>
          </g>
        </g>
        <g>
          <polygon class="cls-56" points="89.48 15.94 89.48 9.82 74.95 .04 73.1 .97 73.1 46.52 76.6 46.52 76.6 29.4 81.35 26.49 81.35 46.52 84.73 46.52 84.73 18.86 89.48 15.95 89.48 46.52 97.18 46.52 97.18 24.86 89.48 15.94"/>
          <g class="cls-42">
            <rect class="cls-15" x="39.91" width="101.01" height="86.77"/>
          </g>
        </g>
        <g>
          <polygon class="cls-55" points="64.6 46.52 66.07 46.52 66.07 4.21 64.6 4.99 64.6 46.52"/>
          <g class="cls-30">
            <rect class="cls-13" x="39.82" width="101.01" height="86.77"/>
          </g>
        </g>
        <g>
          <polygon class="cls-60" points="47.04 21.83 47.04 23.47 54.75 19.86 54.74 18.27 54.74 18.27 51.51 19.78 47.04 21.83"/>
          <g class="cls-51">
            <rect class="cls-15" x="39.91" width="101.01" height="86.77"/>
          </g>
        </g>
      </g>
      <g class="cls-33">
        <rect class="cls-6" x="24.39" y="76.27" width="89.02" height="23.39"/>
      </g>
      <g>
        <path class="cls-57" d="M111.24,83.43c-.25-1.19-1.59-4.83-6.03-4.83h-.24c-4.44,0-5.78,3.65-6.03,4.84-.23,1.11-.23,7.92,0,9.03.25,1.19,1.59,4.83,6.03,4.83h.24c4.44,0,5.92-3.66,6.03-4.83.11-1.17.18-2.87.18-4.53s.05-3.41-.18-4.52ZM109.79,87.96s-.07,2.81-.18,3.7c-.15,1.12-1.1,4.05-4.4,3.96h-.22c-3.3.09-4.25-2.85-4.4-3.97-.12-.89-.18-3.7-.18-3.7,0,0,.07-2.81.18-3.7.15-1.12,1.1-4.07,4.4-3.98h.22c3.3-.1,4.25,2.86,4.4,3.98.12.89.18,3.7.18,3.7h0Z"/>
        <g class="cls-2">
          <rect class="cls-6" x="24.39" y="76.27" width="89.02" height="23.39"/>
        </g>
      </g>
      <g class="cls-52">
        <rect class="cls-6" x="24.39" y="76.27" width="89.02" height="23.39"/>
      </g>
      <g class="cls-50">
        <rect class="cls-6" x="24.39" y="76.27" width="89.02" height="23.39"/>
      </g>
    </g>
  </g>
</svg>